<?xml version="1.0" encoding="UTF-8" standalone="no"?>
<svg
   xmlns:dc="http://purl.org/dc/elements/1.1/"
   xmlns:cc="http://creativecommons.org/ns#"
   xmlns:rdf="http://www.w3.org/1999/02/22-rdf-syntax-ns#"
   xmlns:svg="http://www.w3.org/2000/svg"
   xmlns="http://www.w3.org/2000/svg"
   viewBox="0 0 189.508 151.71201"
   height="151.71201"
   width="189.508"
   xml:space="preserve"
   id="svg2"
   version="1.1"><metadata
     id="metadata8"><rdf:RDF><cc:Work
         rdf:about=""><dc:format>image/svg+xml</dc:format><dc:type
           rdf:resource="http://purl.org/dc/dcmitype/StillImage" /><dc:title></dc:title></cc:Work></rdf:RDF></metadata><defs
     id="defs6" /><g
     transform="matrix(1.3333333,0,0,-1.3333333,0,151.712)"
     id="g10"><g
       transform="translate(14.372,14.372)"
       id="g12"><g
         id="g14"><g
           id="g16"><path
             id="path18"
             style="fill:#000000;fill-opacity:1;fill-rule:nonzero;stroke:none"
             d="M 3.9851,0 C 3.9851,2.20093 2.20093,3.9851 0,3.9851 -2.20093,3.9851 -3.9851,2.20093 -3.9851,0 c 0,-2.20093 1.78417,-3.9851 3.9851,-3.9851 2.20093,0 3.9851,1.78417 3.9851,3.9851 z" /><path
             id="path20"
             style="fill:#000000;fill-opacity:1;fill-rule:nonzero;stroke:none"
             d="m 3.9851,28.3468 c 0,2.20094 -1.78417,3.98511 -3.9851,3.98511 -2.20093,0 -3.9851,-1.78417 -3.9851,-3.98511 0,-2.20094 1.78417,-3.9851 3.9851,-3.9851 2.20093,0 3.9851,1.78416 3.9851,3.9851 z" /><path
             id="path22"
             style="fill:#000000;fill-opacity:1;fill-rule:nonzero;stroke:none"
             d="m 3.9851,56.69362 c 0,2.20094 -1.78417,3.98511 -3.9851,3.98511 -2.20093,0 -3.9851,-1.78417 -3.9851,-3.98511 0,-2.20094 1.78417,-3.98511 3.9851,-3.98511 2.20093,0 3.9851,1.78417 3.9851,3.98511 z" /><path
             id="path24"
             style="fill:#000000;fill-opacity:1;fill-rule:nonzero;stroke:none"
             d="m 3.9851,85.04042 c 0,2.20094 -1.78417,3.98511 -3.9851,3.98511 -2.20093,0 -3.9851,-1.78417 -3.9851,-3.98511 0,-2.20094 1.78417,-3.98511 3.9851,-3.98511 2.20093,0 3.9851,1.78417 3.9851,3.98511 z" /><path
             id="path26"
             style="fill:#000000;fill-opacity:1;fill-rule:nonzero;stroke:none"
             d="m 32.33191,0 c 0,2.20093 -1.78417,3.9851 -3.98511,3.9851 -2.20094,0 -3.9851,-1.78417 -3.9851,-3.9851 0,-2.20093 1.78416,-3.9851 3.9851,-3.9851 2.20094,0 3.98511,1.78417 3.98511,3.9851 z" /><path
             id="path28"
             style="fill:#000000;fill-opacity:1;fill-rule:nonzero;stroke:none"
             d="m 32.33191,28.3468 c 0,2.20094 -1.78417,3.98511 -3.98511,3.98511 -2.20094,0 -3.9851,-1.78417 -3.9851,-3.98511 0,-2.20094 1.78416,-3.9851 3.9851,-3.9851 2.20094,0 3.98511,1.78416 3.98511,3.9851 z" /><path
             id="path30"
             style="fill:#000000;fill-opacity:1;fill-rule:nonzero;stroke:none"
             d="m 32.33191,56.69362 c 0,2.20094 -1.78417,3.98511 -3.98511,3.98511 -2.20094,0 -3.9851,-1.78417 -3.9851,-3.98511 0,-2.20094 1.78416,-3.98511 3.9851,-3.98511 2.20094,0 3.98511,1.78417 3.98511,3.98511 z" /><path
             id="path32"
             style="fill:#000000;fill-opacity:1;fill-rule:nonzero;stroke:none"
             d="m 32.33191,85.04042 c 0,2.20094 -1.78417,3.98511 -3.98511,3.98511 -2.20094,0 -3.9851,-1.78417 -3.9851,-3.98511 0,-2.20094 1.78416,-3.98511 3.9851,-3.98511 2.20094,0 3.98511,1.78417 3.98511,3.98511 z" /><path
             id="path34"
             style="fill:#000000;fill-opacity:1;fill-rule:nonzero;stroke:none"
             d="m 60.67873,0 c 0,2.20093 -1.78417,3.9851 -3.98511,3.9851 -2.20094,0 -3.98511,-1.78417 -3.98511,-3.9851 0,-2.20093 1.78417,-3.9851 3.98511,-3.9851 2.20094,0 3.98511,1.78417 3.98511,3.9851 z" /><path
             id="path36"
             style="fill:#000000;fill-opacity:1;fill-rule:nonzero;stroke:none"
             d="m 60.67873,28.3468 c 0,2.20094 -1.78417,3.98511 -3.98511,3.98511 -2.20094,0 -3.98511,-1.78417 -3.98511,-3.98511 0,-2.20094 1.78417,-3.9851 3.98511,-3.9851 2.20094,0 3.98511,1.78416 3.98511,3.9851 z" /><path
             id="path38"
             style="fill:#000000;fill-opacity:1;fill-rule:nonzero;stroke:none"
             d="m 60.67873,56.69362 c 0,2.20094 -1.78417,3.98511 -3.98511,3.98511 -2.20094,0 -3.98511,-1.78417 -3.98511,-3.98511 0,-2.20094 1.78417,-3.98511 3.98511,-3.98511 2.20094,0 3.98511,1.78417 3.98511,3.98511 z" /><path
             id="path40"
             style="fill:#000000;fill-opacity:1;fill-rule:nonzero;stroke:none"
             d="m 60.67873,85.04042 c 0,2.20094 -1.78417,3.98511 -3.98511,3.98511 -2.20094,0 -3.98511,-1.78417 -3.98511,-3.98511 0,-2.20094 1.78417,-3.98511 3.98511,-3.98511 2.20094,0 3.98511,1.78417 3.98511,3.98511 z" /><path
             id="path42"
             style="fill:#000000;fill-opacity:1;fill-rule:nonzero;stroke:none"
             d="m 89.02553,0 c 0,2.20093 -1.78417,3.9851 -3.98511,3.9851 -2.20094,0 -3.98511,-1.78417 -3.98511,-3.9851 0,-2.20093 1.78417,-3.9851 3.98511,-3.9851 2.20094,0 3.98511,1.78417 3.98511,3.9851 z" /><path
             id="path44"
             style="fill:#000000;fill-opacity:1;fill-rule:nonzero;stroke:none"
             d="m 89.02553,28.3468 c 0,2.20094 -1.78417,3.98511 -3.98511,3.98511 -2.20094,0 -3.98511,-1.78417 -3.98511,-3.98511 0,-2.20094 1.78417,-3.9851 3.98511,-3.9851 2.20094,0 3.98511,1.78416 3.98511,3.9851 z" /><path
             id="path46"
             style="fill:#000000;fill-opacity:1;fill-rule:nonzero;stroke:none"
             d="m 89.02553,56.69362 c 0,2.20094 -1.78417,3.98511 -3.98511,3.98511 -2.20094,0 -3.98511,-1.78417 -3.98511,-3.98511 0,-2.20094 1.78417,-3.98511 3.98511,-3.98511 2.20094,0 3.98511,1.78417 3.98511,3.98511 z" /><path
             id="path48"
             style="fill:#000000;fill-opacity:1;fill-rule:nonzero;stroke:none"
             d="m 89.02553,85.04042 c 0,2.20094 -1.78417,3.98511 -3.98511,3.98511 -2.20094,0 -3.98511,-1.78417 -3.98511,-3.98511 0,-2.20094 1.78417,-3.98511 3.98511,-3.98511 2.20094,0 3.98511,1.78417 3.98511,3.98511 z" /><path
             id="path50"
             style="fill:#000000;fill-opacity:1;fill-rule:nonzero;stroke:none"
             d="m 117.37234,0 c 0,2.20093 -1.78416,3.9851 -3.9851,3.9851 -2.20094,0 -3.98511,-1.78417 -3.98511,-3.9851 0,-2.20093 1.78417,-3.9851 3.98511,-3.9851 2.20094,0 3.9851,1.78417 3.9851,3.9851 z" /><path
             id="path52"
             style="fill:#000000;fill-opacity:1;fill-rule:nonzero;stroke:none"
             d="m 117.37234,28.3468 c 0,2.20094 -1.78416,3.98511 -3.9851,3.98511 -2.20094,0 -3.98511,-1.78417 -3.98511,-3.98511 0,-2.20094 1.78417,-3.9851 3.98511,-3.9851 2.20094,0 3.9851,1.78416 3.9851,3.9851 z" /><path
             id="path54"
             style="fill:#000000;fill-opacity:1;fill-rule:nonzero;stroke:none"
             d="m 117.37234,56.69362 c 0,2.20094 -1.78416,3.98511 -3.9851,3.98511 -2.20094,0 -3.98511,-1.78417 -3.98511,-3.98511 0,-2.20094 1.78417,-3.98511 3.98511,-3.98511 2.20094,0 3.9851,1.78417 3.9851,3.98511 z" /><path
             id="path56"
             style="fill:#000000;fill-opacity:1;fill-rule:nonzero;stroke:none"
             d="m 117.37234,85.04042 c 0,2.20094 -1.78416,3.98511 -3.9851,3.98511 -2.20094,0 -3.98511,-1.78417 -3.98511,-3.98511 0,-2.20094 1.78417,-3.98511 3.98511,-3.98511 2.20094,0 3.9851,1.78417 3.9851,3.98511 z" /><path
             id="path58"
             style="fill:none;stroke:#000000;stroke-width:0.3985;stroke-linecap:butt;stroke-linejoin:miter;stroke-miterlimit:10;stroke-dasharray:none;stroke-opacity:1"
             d="M 0,-14.17339 V 99.21382" /><path
             id="path60"
             style="fill:none;stroke:#000000;stroke-width:0.3985;stroke-linecap:butt;stroke-linejoin:miter;stroke-miterlimit:10;stroke-dasharray:none;stroke-opacity:1"
             d="M 28.3468,-14.17339 V 99.21382" /><path
             id="path62"
             style="fill:none;stroke:#000000;stroke-width:0.3985;stroke-linecap:butt;stroke-linejoin:miter;stroke-miterlimit:10;stroke-dasharray:none;stroke-opacity:1"
             d="M 56.69362,-14.17339 V 99.21382" /><path
             id="path64"
             style="fill:none;stroke:#000000;stroke-width:0.3985;stroke-linecap:butt;stroke-linejoin:miter;stroke-miterlimit:10;stroke-dasharray:none;stroke-opacity:1"
             d="M 85.04042,-14.17339 V 99.21382" /><path
             id="path66"
             style="fill:none;stroke:#000000;stroke-width:0.3985;stroke-linecap:butt;stroke-linejoin:miter;stroke-miterlimit:10;stroke-dasharray:none;stroke-opacity:1"
             d="M 113.38724,-14.17339 V 99.21382" /><path
             id="path68"
             style="fill:none;stroke:#000000;stroke-width:0.3985;stroke-linecap:butt;stroke-linejoin:miter;stroke-miterlimit:10;stroke-dasharray:none;stroke-opacity:1"
             d="M -14.17339,0 H 127.56062" /><path
             id="path70"
             style="fill:none;stroke:#000000;stroke-width:0.3985;stroke-linecap:butt;stroke-linejoin:miter;stroke-miterlimit:10;stroke-dasharray:none;stroke-opacity:1"
             d="M -14.17339,28.3468 H 127.56062" /><path
             id="path72"
             style="fill:none;stroke:#000000;stroke-width:0.3985;stroke-linecap:butt;stroke-linejoin:miter;stroke-miterlimit:10;stroke-dasharray:none;stroke-opacity:1"
             d="M -14.17339,56.69362 H 127.56062" /><path
             id="path74"
             style="fill:none;stroke:#000000;stroke-width:0.3985;stroke-linecap:butt;stroke-linejoin:miter;stroke-miterlimit:10;stroke-dasharray:none;stroke-opacity:1"
             d="M -14.17339,85.04042 H 127.56062" /></g></g></g></g></svg>
