<?xml version="1.0" encoding="utf-8" ?>
<svg baseProfile="full" height="100%" version="1.1" viewBox="-0.5 -0.5 5.0 4.0" width="100%" xmlns="http://www.w3.org/2000/svg" xmlns:ev="http://www.w3.org/2001/xml-events" xmlns:xlink="http://www.w3.org/1999/xlink"><defs /><circle cx="0" cy="0" fill="rgb(245,245,245)" r="0.1" /><circle cx="1" cy="0" fill="rgb(0,0,0)" r="0.1" /><circle cx="2" cy="0" fill="rgb(245,245,245)" r="0.1" /><circle cx="3" cy="0" fill="rgb(134,134,134)" r="0.1" /><circle cx="4" cy="0" fill="rgb(134,134,134)" r="0.1" /><circle cx="0" cy="1" fill="rgb(32,32,32)" r="0.1" /><circle cx="1" cy="1" fill="rgb(251,251,251)" r="0.1" /><circle cx="2" cy="1" fill="rgb(32,32,32)" r="0.1" /><circle cx="3" cy="1" fill="rgb(205,205,205)" r="0.1" /><circle cx="4" cy="1" fill="rgb(205,205,205)" r="0.1" /><circle cx="0" cy="2" fill="rgb(245,245,245)" r="0.1" /><circle cx="1" cy="2" fill="rgb(0,0,0)" r="0.1" /><circle cx="2" cy="2" fill="rgb(245,245,245)" r="0.1" /><circle cx="3" cy="2" fill="rgb(134,134,134)" r="0.1" /><circle cx="4" cy="2" fill="rgb(134,134,134)" r="0.1" /><circle cx="0" cy="3" fill="rgb(52,52,52)" r="0.1" /><circle cx="1" cy="3" fill="rgb(255,255,255)" r="0.1" /><circle cx="2" cy="3" fill="rgb(52,52,52)" r="0.1" /><circle cx="3" cy="3" fill="rgb(215,215,215)" r="0.1" /><circle cx="4" cy="3" fill="rgb(215,215,215)" r="0.1" /></svg>