<?xml version="1.0" encoding="utf-8" ?>
<svg baseProfile="full" height="100%" version="1.1" viewBox="-0.5 -0.5 5.0 4.0" width="100%" xmlns="http://www.w3.org/2000/svg" xmlns:ev="http://www.w3.org/2001/xml-events" xmlns:xlink="http://www.w3.org/1999/xlink"><defs /><circle cx="0" cy="0" fill="rgb(41,41,41)" r="0.1" /><circle cx="1" cy="0" fill="rgb(249,249,249)" r="0.1" /><circle cx="2" cy="0" fill="rgb(41,41,41)" r="0.1" /><circle cx="3" cy="0" fill="rgb(196,196,196)" r="0.1" /><circle cx="4" cy="0" fill="rgb(196,196,196)" r="0.1" /><circle cx="0" cy="1" fill="rgb(235,235,235)" r="0.1" /><circle cx="1" cy="1" fill="rgb(0,0,0)" r="0.1" /><circle cx="2" cy="1" fill="rgb(235,235,235)" r="0.1" /><circle cx="3" cy="1" fill="rgb(117,117,117)" r="0.1" /><circle cx="4" cy="1" fill="rgb(117,117,117)" r="0.1" /><circle cx="0" cy="2" fill="rgb(41,41,41)" r="0.1" /><circle cx="1" cy="2" fill="rgb(249,249,249)" r="0.1" /><circle cx="2" cy="2" fill="rgb(41,41,41)" r="0.1" /><circle cx="3" cy="2" fill="rgb(196,196,196)" r="0.1" /><circle cx="4" cy="2" fill="rgb(196,196,196)" r="0.1" /><circle cx="0" cy="3" fill="rgb(239,239,239)" r="0.1" /><circle cx="1" cy="3" fill="rgb(10,10,10)" r="0.1" /><circle cx="2" cy="3" fill="rgb(239,239,239)" r="0.1" /><circle cx="3" cy="3" fill="rgb(125,125,125)" r="0.1" /><circle cx="4" cy="3" fill="rgb(125,125,125)" r="0.1" /></svg>