<?xml version="1.0" encoding="utf-8" ?>
<svg baseProfile="full" height="100%" version="1.1" viewBox="-0.5 -0.5 5.0 4.0" width="100%" xmlns="http://www.w3.org/2000/svg" xmlns:ev="http://www.w3.org/2001/xml-events" xmlns:xlink="http://www.w3.org/1999/xlink"><defs /><circle cx="0" cy="0" fill="rgb(255,255,255)" r="0.1" /><circle cx="1" cy="0" fill="rgb(0,0,0)" r="0.1" /><circle cx="2" cy="0" fill="rgb(255,255,255)" r="0.1" /><circle cx="3" cy="0" fill="rgb(179,179,179)" r="0.1" /><circle cx="4" cy="0" fill="rgb(179,179,179)" r="0.1" /><circle cx="0" cy="1" fill="rgb(25,25,25)" r="0.1" /><circle cx="1" cy="1" fill="rgb(255,255,255)" r="0.1" /><circle cx="2" cy="1" fill="rgb(25,25,25)" r="0.1" /><circle cx="3" cy="1" fill="rgb(230,230,230)" r="0.1" /><circle cx="4" cy="1" fill="rgb(230,230,230)" r="0.1" /><circle cx="0" cy="2" fill="rgb(255,255,255)" r="0.1" /><circle cx="1" cy="2" fill="rgb(0,0,0)" r="0.1" /><circle cx="2" cy="2" fill="rgb(255,255,255)" r="0.1" /><circle cx="3" cy="2" fill="rgb(179,179,179)" r="0.1" /><circle cx="4" cy="2" fill="rgb(179,179,179)" r="0.1" /><circle cx="0" cy="3" fill="rgb(102,102,102)" r="0.1" /><circle cx="1" cy="3" fill="rgb(255,255,255)" r="0.1" /><circle cx="2" cy="3" fill="rgb(102,102,102)" r="0.1" /><circle cx="3" cy="3" fill="rgb(255,255,255)" r="0.1" /><circle cx="4" cy="3" fill="rgb(255,255,255)" r="0.1" /></svg>