<?xml version="1.0" encoding="utf-8" ?>
<svg baseProfile="full" height="100%" version="1.1" viewBox="-0.5 -0.5 5.0 4.0" width="100%" xmlns="http://www.w3.org/2000/svg" xmlns:ev="http://www.w3.org/2001/xml-events" xmlns:xlink="http://www.w3.org/1999/xlink"><defs /><circle cx="0" cy="0" fill="rgb(16,16,16)" r="0.1" /><circle cx="1" cy="0" fill="rgb(167,167,167)" r="0.1" /><circle cx="2" cy="0" fill="rgb(16,16,16)" r="0.1" /><circle cx="3" cy="0" fill="rgb(111,111,111)" r="0.1" /><circle cx="4" cy="0" fill="rgb(111,111,111)" r="0.1" /><circle cx="0" cy="1" fill="rgb(152,152,152)" r="0.1" /><circle cx="1" cy="1" fill="rgb(0,0,0)" r="0.1" /><circle cx="2" cy="1" fill="rgb(152,152,152)" r="0.1" /><circle cx="3" cy="1" fill="rgb(59,59,59)" r="0.1" /><circle cx="4" cy="1" fill="rgb(59,59,59)" r="0.1" /><circle cx="0" cy="2" fill="rgb(16,16,16)" r="0.1" /><circle cx="1" cy="2" fill="rgb(167,167,167)" r="0.1" /><circle cx="2" cy="2" fill="rgb(16,16,16)" r="0.1" /><circle cx="3" cy="2" fill="rgb(111,111,111)" r="0.1" /><circle cx="4" cy="2" fill="rgb(111,111,111)" r="0.1" /><circle cx="0" cy="3" fill="rgb(152,152,152)" r="0.1" /><circle cx="1" cy="3" fill="rgb(0,0,0)" r="0.1" /><circle cx="2" cy="3" fill="rgb(152,152,152)" r="0.1" /><circle cx="3" cy="3" fill="rgb(59,59,59)" r="0.1" /><circle cx="4" cy="3" fill="rgb(59,59,59)" r="0.1" /></svg>