<?xml version="1.0" encoding="utf-8" ?>
<svg baseProfile="full" height="100%" version="1.1" viewBox="0.22579239980107046 -2.0150546079555727 4.2458422870157975 4.073882646500465" width="100%" xmlns="http://www.w3.org/2000/svg" xmlns:ev="http://www.w3.org/2001/xml-events" xmlns:xlink="http://www.w3.org/1999/xlink"><defs /><circle cx="3.8653021844288658" cy="0.7332063044557342" fill="rgb(65,65,65)" r="0.1" /><circle cx="2.797604008160078" cy="-0.10297338387973648" fill="rgb(10,10,10)" r="0.1" /><circle cx="3.355513049077012" cy="1.0941437611857716" fill="rgb(43,43,43)" r="0.1" /><circle cx="3.254384813490253" cy="0.21530813800622017" fill="rgb(43,43,43)" r="0.1" /><circle cx="3.4555823965377073" cy="-0.2566381003379014" fill="rgb(43,43,43)" r="0.1" /><circle cx="3.947820156814951" cy="0.12370293511808537" fill="rgb(30,30,30)" r="0.1" /><circle cx="1.1284148788610902" cy="0.3841901937404369" fill="rgb(112,112,112)" r="0.1" /><circle cx="3.971634686816868" cy="-0.9371801325644324" fill="rgb(34,34,34)" r="0.1" /><circle cx="2.789246565768188" cy="-0.8733890239985203" fill="rgb(77,77,77)" r="0.1" /><circle cx="3.704053164992058" cy="-1.5150546079555727" fill="rgb(0,0,0)" r="0.1" /><circle cx="1.9506382234459227" cy="1.4877611601411571" fill="rgb(88,88,88)" r="0.1" /><circle cx="1.7282735300473848" cy="0.08169930589826982" fill="rgb(88,88,88)" r="0.1" /><circle cx="3.221075008282954" cy="-1.114276486270294" fill="rgb(43,43,43)" r="0.1" /><circle cx="1.8002186944890126" cy="-0.8424666959822982" fill="rgb(73,73,73)" r="0.1" /><circle cx="0.978892417413552" cy="-1.0437763962963784" fill="rgb(107,107,107)" r="0.1" /><circle cx="0.963168153648496" cy="1.1414373610577933" fill="rgb(107,107,107)" r="0.1" /><circle cx="1.920025992831857" cy="0.6039137597621725" fill="rgb(73,73,73)" r="0.1" /><circle cx="0.7257923998010705" cy="-0.5189676814981159" fill="rgb(77,77,77)" r="0.1" /><circle cx="1.2420621706402373" cy="-0.21946844912727057" fill="rgb(50,50,50)" r="0.1" /><circle cx="1.169221597307237" cy="1.5588280385448925" fill="rgb(77,77,77)" r="0.1" /></svg>